<svg width="14" height="15" fill="none" xmlns="http://www.w3.org/2000/svg"><g clip-path="url(#clip0_0_367)"><path d="M13.689 3.963v-.03c-.015-.03-.015-.059-.03-.089V3.83a.278.278 0 00-.06-.074l-.014-.015c-.015-.015-.044-.03-.06-.045l-.014-.014h-.015l-.015-.015L7.192.544a.471.471 0 00-.4 0L4.676 1.595l6.32 3.241.014.015c.015 0 .015.015.03.015.014.014.014.03.03.044v3.478c0 .059-.03.103-.075.133l-1.272.666c-.074.044-.163.015-.208-.06-.014-.014-.014-.044-.014-.073v-3.36l-6.393-3.3-.015-.015-2.56 1.273-.015.015H.503l-.015.015c-.015.014-.044.03-.059.044l-.015.015c-.03.03-.044.06-.074.089v.014a.21.21 0 00-.03.09v.029c0 .03-.014.044-.014.074v6.911a.44.44 0 00.251.4l6.23 3.107a.41.41 0 00.297.03l.03-.015c.029 0 .044-.015.073-.03l6.275-3.107a.446.446 0 00.251-.4V4.037c-.014-.03-.014-.045-.014-.074z" fill="#fff"/></g><defs><clipPath id="clip0_0_367"><path fill="#fff" transform="translate(0 .5)" d="M0 0h14v14H0z"/></clipPath></defs></svg>