<svg width="969" height="162" fill="none" xmlns="http://www.w3.org/2000/svg"><path d="M6.3 35.6C2.38 31.6.42 26.64.42 20.72S2.38 9.88 6.3 5.96C10.26 2 15.2.02 21.12.02S31.98 2 35.94 5.96c3.96 3.92 5.94 8.84 5.94 14.76S39.9 31.6 35.94 35.6c-3.96 3.96-8.9 5.94-14.82 5.94S10.26 39.56 6.3 35.6zM21.12 38c4.88 0 8.94-1.64 12.18-4.92 3.24-3.32 4.86-7.44 4.86-12.36 0-4.88-1.62-8.98-4.86-12.3C30.06 5.14 26 3.5 21.12 3.5c-4.84 0-8.9 1.64-12.18 4.92-3.24 3.32-4.86 7.42-4.86 12.3 0 4.96 1.62 9.08 4.86 12.36C12.22 36.36 16.28 38 21.12 38zm33.041-13.26V41h-3.66V.5h17.52c3.64 0 6.64 1.16 9 3.48 2.4 2.36 3.6 5.24 3.6 8.64 0 3.4-1.2 6.28-3.6 8.64-2.36 2.32-5.36 3.48-9 3.48h-13.86zm13.86-20.88h-13.86v17.52h13.86c2.48 0 4.58-.82 6.3-2.46 1.72-1.68 2.58-3.78 2.58-6.3 0-2.48-.86-4.56-2.58-6.24-1.68-1.68-3.78-2.52-6.3-2.52zM92.121 41h-3.24V.5h3.66v34.26L119.66.5h3.24V41h-3.6V6.68L92.12 41zm44.892-37.14V41h-3.66V.5h25.44v3.36h-21.78zM168.878 41h-3.24V.5h3.66v34.26L196.418.5h3.24V41h-3.6V6.68L168.878 41zm44.893 0h-3.66V.5h3.66v18.3h26.64V.5h3.6V41h-3.6V22.16h-26.64V41zm40.575 0h-3.78L268.626.5h2.76l18.06 40.5h-3.78l-4.44-10.02h-22.44L254.346 41zm25.38-13.38l-9.72-21.84-9.72 21.84h19.44zM293.429 41h-1.32v-3.36h1.32c1.04 0 1.96-.26 2.76-.78.84-.56 1.6-1.46 2.28-2.7.68-1.24 1.2-3.02 1.56-5.34.36-2.36.54-5.22.54-8.58V.5h28.2V41h-3.6V3.86h-21v16.38c0 13.84-3.58 20.76-10.74 20.76zm45.764 0V.5h3.66v16.62h13.68c3.6 0 6.56 1.14 8.88 3.42 2.36 2.28 3.54 5.12 3.54 8.52 0 3.4-1.2 6.24-3.6 8.52-2.36 2.28-5.3 3.42-8.82 3.42h-17.34zm3.66-20.52v17.16h13.68c2.28 0 4.2-.68 5.76-2.04 1.6-1.36 2.56-3.12 2.88-5.28v-.42c.04-.24.06-.38.06-.42 0-2.64-.8-4.8-2.4-6.48-1.6-1.68-3.7-2.52-6.3-2.52h-13.68zM380.704 41h-3.66V.5h3.66v18.3h26.64V.5h3.6V41h-3.6V22.16h-26.64V41zm40.576 0h-3.78L435.56.5h2.76L456.38 41h-3.78l-4.44-10.02h-22.44L421.28 41zm25.38-13.38l-9.72-21.84-9.72 21.84h19.44zm28.343-3.06L464.803 41h-4.02l10.2-16.68c-2.88-.6-5.26-1.98-7.14-4.14-1.8-2.16-2.7-4.72-2.7-7.68 0-3.4 1.2-6.24 3.6-8.52 2.44-2.32 5.46-3.48 9.06-3.48h18V41h-3.6V24.56h-13.2zm-10.14-12.06c0 2.48.84 4.56 2.52 6.24 1.76 1.64 3.9 2.46 6.42 2.46h14.4V3.86h-14.4c-2.56 0-4.7.84-6.42 2.52-1.68 1.64-2.52 3.68-2.52 6.12zm66.521-8.64h-16.26V.5h36.12v3.36h-16.26V41h-3.6V3.86zM558.099.5h28.74v3.36h-25.08V18.8h22.26v3.36h-22.26v15.48h25.38V41h-29.04V.5zm48.5 19.86L591.419.5h4.32l13.02 17.04L621.779.5h4.32l-15.18 19.86L626.699 41h-4.32l-13.62-17.82L595.199 41h-4.32l15.72-20.64zM636.818 41h-3.66V.5h3.66v18.3h26.64V.5h3.6V41h-3.6V22.16h-26.64V41zm43.935 0h-3.24V.5h3.66v34.26L708.293.5h3.24V41h-3.6V6.68L680.753 41zm71.473 0h-4.68l-19.74-20.64L746.406.5h4.62l-18.6 19.86 19.8 20.64zm-30.24 0V.5h3.66V41h-3.66zm36.618 0h-3.78L772.884.5h2.76l18.06 40.5h-3.78l-4.44-10.02h-22.44L758.604 41zm25.38-13.38l-9.72-21.84-9.72 21.84h19.44zM5.88 101H2.22V60.5h3.66l17.4 30.24 17.4-30.24h3.6V101h-3.6V67.4L24.42 95.66h-2.34l-16.2-28.2V101zm52.5 0h-3.66V60.5h3.66V101zm10.461-40.5h28.74v3.36h-25.08V78.8h22.26v3.36h-22.26v15.48h25.38V101h-29.04V60.5zm36.68 0h3.66v37.14h22.8V101h-26.46V60.5zm33.691 0h28.74v3.36h-25.08V78.8h22.26v3.36h-22.26v15.48h25.38V101h-29.04V60.5zm73.186 40.5h-20.1V60.5h18.96c3.16 0 5.78.98 7.86 2.94s3.12 4.4 3.12 7.32c0 1.8-.46 3.48-1.38 5.04-.88 1.56-2.1 2.8-3.66 3.72 2.2.84 3.94 2.18 5.22 4.02 1.28 1.8 1.92 3.88 1.92 6.24 0 3.2-1.14 5.88-3.42 8.04-2.32 2.12-5.16 3.18-8.52 3.18zm0-19.5h-16.44v16.14h16.44c2.28 0 4.22-.76 5.82-2.28 1.6-1.56 2.4-3.48 2.4-5.76 0-2.32-.78-4.24-2.34-5.76-1.56-1.56-3.52-2.34-5.88-2.34zm-1.14-17.64h-15.3v14.28h15.3c2.08 0 3.82-.68 5.22-2.04 1.4-1.36 2.1-3.06 2.1-5.1 0-1.96-.7-3.64-2.1-5.04-1.4-1.4-3.14-2.1-5.22-2.1zM252.794 101h-3.66V60.5h3.66v18.3h26.64V60.5h3.6V101h-3.6V82.16h-26.64V101zm40.576 0h-3.78l18.06-40.5h2.76l18.06 40.5h-3.78l-4.44-10.02h-22.44L293.37 101zm25.38-13.38l-9.72-21.84-9.72 21.84h19.44zM332.453 101h-1.32v-3.36h1.32c1.04 0 1.96-.26 2.76-.78.84-.56 1.6-1.46 2.28-2.7.68-1.24 1.2-3.02 1.56-5.34.36-2.36.54-5.22.54-8.58V60.5h28.2V101h-3.6V63.86h-21v16.38c0 13.84-3.58 20.76-10.74 20.76zm49.003 0h-3.24V60.5h3.66v34.26l27.12-34.26h3.24V101h-3.6V66.68L381.456 101zm57.193-15.6c-5.72 0-10.14-1.14-13.26-3.42-3.08-2.32-4.62-5.6-4.62-9.84V60.5h3.54v11.64c0 6.6 4.76 9.9 14.28 9.9 3.76 0 7.32-.46 10.68-1.38V60.5h3.6V101h-3.6V84.02c-3.24.92-6.78 1.38-10.62 1.38zm27.885 15.6h-3.24V60.5h3.66v34.26l27.12-34.26h3.24V101h-3.6V66.68L466.534 101zm44.473 0h-3.24V60.5h3.66v34.26l27.12-34.26h3.24V101h-3.6V66.68L511.007 101zm60.879 0h-3.24V60.5h3.66v34.26l27.12-34.26h3.24V101h-3.6V66.68L571.886 101zm61.299-37.14V101h-3.66V60.5h33.9V101h-3.6V63.86h-26.64zM677.96 95.6c-3.92-4-5.88-8.96-5.88-14.88s1.96-10.84 5.88-14.76c3.96-3.96 8.9-5.94 14.82-5.94s10.86 1.98 14.82 5.94c3.96 3.92 5.94 8.84 5.94 14.76s-1.98 10.88-5.94 14.88c-3.96 3.96-8.9 5.94-14.82 5.94s-10.86-1.98-14.82-5.94zm14.82 2.4c4.88 0 8.94-1.64 12.18-4.92 3.24-3.32 4.86-7.44 4.86-12.36 0-4.88-1.62-8.98-4.86-12.3-3.24-3.28-7.3-4.92-12.18-4.92-4.84 0-8.9 1.64-12.18 4.92-3.24 3.32-4.86 7.42-4.86 12.3 0 4.96 1.62 9.08 4.86 12.36 3.28 3.28 7.34 4.92 12.18 4.92zm27.035 3v9.84h-3.6v-13.2h4.5c3.8-1.04 5.7-6.82 5.7-17.34V60.5h28.26v37.14h6.9v13.2h-3.54V101h-38.22zm6.24-3.36h25.08V63.86h-21.12v16.26c0 8.4-1.32 14.24-3.96 17.52zm71.765 3.9c-7.44 0-12.62-3.2-15.54-9.6l3.42-1.32c2.32 4.96 6.36 7.44 12.12 7.44 3.44-.08 6.26-.88 8.46-2.4 2.24-1.64 3.36-3.7 3.36-6.18 0-2.2-.8-4.04-2.4-5.52-1.6-1.52-3.54-2.28-5.82-2.28h-7.92v-3.36h7.74c2.08 0 3.8-.68 5.16-2.04 1.4-1.4 2.1-3.06 2.1-4.98 0-2.32-1.02-4.2-3.06-5.64-1.96-1.44-4.56-2.16-7.8-2.16-5.6 0-9.54 2.48-11.82 7.44l-3.42-1.38c2.88-6.36 7.98-9.54 15.3-9.54 4.28 0 7.76 1.04 10.44 3.12 2.72 2.04 4.08 4.66 4.08 7.86 0 1.92-.5 3.68-1.5 5.28a9.99 9.99 0 01-4.02 3.6c2.04.92 3.66 2.26 4.86 4.02 1.2 1.76 1.8 3.72 1.8 5.88 0 3.4-1.48 6.22-4.44 8.46-2.92 2.2-6.62 3.3-11.1 3.3zm22.835-.54h-3.78l18.06-40.5h2.76l18.06 40.5h-3.78l-4.44-10.02h-22.44l-4.44 10.02zm25.38-13.38l-9.72-21.84-9.72 21.84h19.44zM892.558 101h-4.68l-19.74-20.64 18.6-19.86h4.62l-18.6 19.86 19.8 20.64zm-30.24 0V60.5h3.66V101h-3.66zm36.618 0h-3.78l18.06-40.5h2.76l18.06 40.5h-3.78l-4.44-10.02h-22.44l-4.44 10.02zm25.38-13.38l-9.72-21.84-9.72 21.84h19.44zm28.191 13.92c-7.44 0-12.62-3.2-15.54-9.6l3.42-1.32c2.32 4.96 6.36 7.44 12.12 7.44 3.44-.08 6.26-.88 8.46-2.4 2.24-1.64 3.36-3.7 3.36-6.18 0-2.2-.8-4.04-2.4-5.52-1.6-1.52-3.54-2.28-5.82-2.28h-7.92v-3.36h7.74c2.08 0 3.8-.68 5.16-2.04 1.4-1.4 2.1-3.06 2.1-4.98 0-2.32-1.02-4.2-3.06-5.64-1.96-1.44-4.56-2.16-7.8-2.16-5.6 0-9.54 2.48-11.82 7.44l-3.42-1.38c2.88-6.36 7.98-9.54 15.3-9.54 4.28 0 7.76 1.04 10.44 3.12 2.72 2.04 4.08 4.66 4.08 7.86 0 1.92-.5 3.68-1.5 5.28a9.99 9.99 0 01-4.02 3.6c2.04.92 3.66 2.26 4.86 4.02 1.2 1.76 1.8 3.72 1.8 5.88 0 3.4-1.48 6.22-4.44 8.46-2.92 2.2-6.62 3.3-11.1 3.3zM5.46 161H2.22v-40.5h3.66v34.26L33 120.5h3.24V161h-3.6v-34.32L5.46 161zm54.313.54c-7.44 0-12.62-3.2-15.54-9.6l3.42-1.32c2.32 4.96 6.36 7.44 12.12 7.44 3.44-.08 6.26-.88 8.46-2.4 2.24-1.64 3.36-3.7 3.36-6.18 0-2.2-.8-4.04-2.4-5.52-1.6-1.52-3.54-2.28-5.82-2.28h-7.92v-3.36h7.74c2.08 0 3.8-.68 5.16-2.04 1.4-1.4 2.1-3.06 2.1-4.98 0-2.32-1.02-4.2-3.06-5.64-1.96-1.44-4.56-2.16-7.8-2.16-5.6 0-9.54 2.48-11.82 7.44l-3.42-1.38c2.88-6.36 7.98-9.54 15.3-9.54 4.28 0 7.76 1.04 10.44 3.12 2.72 2.04 4.08 4.66 4.08 7.86 0 1.92-.5 3.68-1.5 5.28a9.99 9.99 0 01-4.02 3.6c2.04.92 3.66 2.26 4.86 4.02 1.2 1.76 1.8 3.72 1.8 5.88 0 3.4-1.48 6.22-4.44 8.46-2.92 2.2-6.62 3.3-11.1 3.3zm44.261-5.94c-3.92-4-5.88-8.96-5.88-14.88s1.96-10.84 5.88-14.76c3.96-3.96 8.9-5.94 14.82-5.94 3.84 0 7.34.88 10.5 2.64 3.16 1.76 5.64 4.2 7.44 7.32l-3.48 1.38c-1.48-2.44-3.5-4.36-6.06-5.76-2.52-1.4-5.32-2.1-8.4-2.1-4.84 0-8.9 1.64-12.18 4.92-3.24 3.32-4.86 7.42-4.86 12.3 0 4.96 1.62 9.08 4.86 12.36 3.28 3.28 7.34 4.92 12.18 4.92 3.08 0 5.88-.7 8.4-2.1 2.56-1.4 4.58-3.32 6.06-5.76l3.48 1.38c-1.8 3.12-4.3 5.58-7.5 7.38-3.16 1.76-6.64 2.64-10.44 2.64-5.92 0-10.86-1.98-14.82-5.94zm51.94-31.74h-16.26v-3.36h36.12v3.36h-16.26V161h-3.6v-37.14zm30.375 20.88V161h-3.66v-40.5h17.52c3.64 0 6.64 1.16 9 3.48 2.4 2.36 3.6 5.24 3.6 8.64 0 3.4-1.2 6.28-3.6 8.64-2.36 2.32-5.36 3.48-9 3.48h-13.86zm13.86-20.88h-13.86v17.52h13.86c2.48 0 4.58-.82 6.3-2.46 1.72-1.68 2.58-3.78 2.58-6.3 0-2.48-.86-4.56-2.58-6.24-1.68-1.68-3.78-2.52-6.3-2.52zM216.26 161h-3.78l18.06-40.5h2.76l18.06 40.5h-3.78l-4.44-10.02H220.7L216.26 161zm25.38-13.38l-9.72-21.84-9.72 21.84h19.44zM261.583 161h-3.66v-40.5h3.66v18.3h26.64v-18.3h3.6V161h-3.6v-18.84h-26.64V161zm61.182-5.4c-3.92-4-5.88-8.96-5.88-14.88s1.96-10.84 5.88-14.76c3.96-3.96 8.9-5.94 14.82-5.94 3.84 0 7.34.88 10.5 2.64 3.16 1.76 5.64 4.2 7.44 7.32l-3.48 1.38c-1.48-2.44-3.5-4.36-6.06-5.76-2.52-1.4-5.32-2.1-8.4-2.1-4.84 0-8.9 1.64-12.18 4.92-3.24 3.32-4.86 7.42-4.86 12.3 0 4.96 1.62 9.08 4.86 12.36 3.28 3.28 7.34 4.92 12.18 4.92 3.08 0 5.88-.7 8.4-2.1 2.56-1.4 4.58-3.32 6.06-5.76l3.48 1.38c-1.8 3.12-4.3 5.58-7.5 7.38-3.16 1.76-6.64 2.64-10.44 2.64-5.92 0-10.86-1.98-14.82-5.94zm44.873 5.4h-3.66v-40.5h3.66v18.3h26.64v-18.3h3.6V161h-3.6v-18.84h-26.64V161zm44.355-37.14V161h-3.66v-40.5h25.44v3.36h-21.78zM460.265 161h-3.24v-40.5h3.66v34.26l27.12-34.26h3.24V161h-3.6v-34.32L460.265 161zm57.639-40.5h28.74v3.36h-25.08v14.94h22.26v3.36h-22.26v15.48h25.38V161h-29.04v-40.5zm56.779 40.5h-20.1v-40.5h18.96c3.16 0 5.78.98 7.86 2.94s3.12 4.4 3.12 7.32c0 1.8-.46 3.48-1.38 5.04-.88 1.56-2.1 2.8-3.66 3.72 2.2.84 3.94 2.18 5.22 4.02 1.28 1.8 1.92 3.88 1.92 6.24 0 3.2-1.14 5.88-3.42 8.04-2.32 2.12-5.16 3.18-8.52 3.18zm0-19.5h-16.44v16.14h16.44c2.28 0 4.22-.76 5.82-2.28 1.6-1.56 2.4-3.48 2.4-5.76 0-2.32-.78-4.24-2.34-5.76-1.56-1.56-3.52-2.34-5.88-2.34zm-1.14-17.64h-15.3v14.28h15.3c2.08 0 3.82-.68 5.22-2.04 1.4-1.36 2.1-3.06 2.1-5.1 0-1.96-.7-3.64-2.1-5.04-1.4-1.4-3.14-2.1-5.22-2.1zm25.13 20.88V161h-3.66v-40.5h17.52c3.64 0 6.64 1.16 9 3.48 2.4 2.36 3.6 5.24 3.6 8.64 0 3.4-1.2 6.28-3.6 8.64-2.36 2.32-5.36 3.48-9 3.48h-13.86zm13.86-20.88h-13.86v17.52h13.86c2.48 0 4.58-.82 6.3-2.46 1.72-1.68 2.58-3.78 2.58-6.3 0-2.48-.86-4.56-2.58-6.24-1.68-1.68-3.78-2.52-6.3-2.52zm24.47 31.74c-3.92-4-5.88-8.96-5.88-14.88s1.96-10.84 5.88-14.76c3.96-3.96 8.9-5.94 14.82-5.94s10.86 1.98 14.82 5.94c3.96 3.92 5.94 8.84 5.94 14.76s-1.98 10.88-5.94 14.88c-3.96 3.96-8.9 5.94-14.82 5.94s-10.86-1.98-14.82-5.94zm14.82 2.4c4.88 0 8.94-1.64 12.18-4.92 3.24-3.32 4.86-7.44 4.86-12.36 0-4.88-1.62-8.98-4.86-12.3-3.24-3.28-7.3-4.92-12.18-4.92-4.84 0-8.9 1.64-12.18 4.92-3.24 3.32-4.86 7.42-4.86 12.3 0 4.96 1.62 9.08 4.86 12.36 3.28 3.28 7.34 4.92 12.18 4.92zm33.041-34.14V161h-3.66v-40.5h33.9V161h-3.6v-37.14h-26.64zM742.9 161h-17.34v-40.5h3.66v16.62h13.68c3.6 0 6.56 1.14 8.88 3.42 2.36 2.28 3.54 5.12 3.54 8.52 0 3.4-1.2 6.24-3.6 8.52-2.36 2.28-5.3 3.42-8.82 3.42zm-13.68-20.52v17.16h13.68c2.48 0 4.54-.82 6.18-2.46 1.68-1.64 2.52-3.68 2.52-6.12 0-2.24-.7-4.14-2.1-5.7-1.36-1.56-3.14-2.5-5.34-2.82h-.42c-.2-.04-.34-.06-.42-.06h-14.1zm37.2 20.52h-3.6v-40.5h3.6V161z" fill="#fff"/></svg>