<svg width="128" height="23" fill="none" xmlns="http://www.w3.org/2000/svg"><path d="M14.216 17.39l5.64-7.89v12h5.4V1.4h-5.4l-7.02 10.29L5.816 1.4h-5.4v20.1h5.4v-12l5.64 7.89h2.76zM29.948 1.4v20.1h5.4V1.4h-5.4zm28.839 0h-19.23v20.1h19.23v-4.8h-13.83V14h10.83V9.2h-10.83v-3h13.83V1.4zM81.58 21.5v-4.8H67.75V1.4h-5.4v20.1h19.23zm22.793-20.1h-19.23v20.1h19.23v-4.8h-13.83V14h10.83V9.2h-10.83v-3h13.83V1.4zm13.486 15.9c-3.06 0-6.69-.48-9.93-1.2v5.04c2.85.6 5.85.96 9 .96h1.08c7.65 0 9.87-3.06 9.87-6.48v-.39c0-5.91-6.9-6.12-9.75-6.18-3.39-.09-4.71-.3-4.71-1.74 0-.69.3-1.68 4.65-1.68 2.94 0 5.79.42 8.7 1.11V1.79c-2.46-.63-5.1-.99-7.83-.99h-1.08c-7.62 0-9.84 3.06-9.84 6.51v.39c0 5.85 6.66 6.06 9.72 6.15 3.48.09 4.74.3 4.74 1.71 0 .75-.33 1.74-4.62 1.74z" fill="#8C0014"/></svg>