<svg width="18" height="18" fill="none" xmlns="http://www.w3.org/2000/svg"><path d="M15.107 14.048l-2.432-2.433a5.526 5.526 0 001.142-3.37c0-1.489-.58-2.888-1.633-3.94a5.536 5.536 0 00-3.94-1.633c-1.489 0-2.888.58-3.94 1.632a5.579 5.579 0 000 7.881 5.536 5.536 0 003.94 1.633 5.528 5.528 0 003.37-1.142l2.433 2.432a.747.747 0 001.06 0 .75.75 0 000-1.06zm-9.743-2.923a4.078 4.078 0 010-5.76 4.047 4.047 0 012.88-1.193c1.088 0 2.11.424 2.88 1.193a4.046 4.046 0 011.193 2.88c0 1.088-.424 2.11-1.193 2.88a4.046 4.046 0 01-2.88 1.193 4.046 4.046 0 01-2.88-1.193z" fill="#C9C9C9"/></svg>