<svg width="14" height="15" fill="none" xmlns="http://www.w3.org/2000/svg"><g clip-path="url(#clip0_0_375)"><path d="M7 .938A6.57 6.57 0 00.437 7.5c0 1.273.366 2.5 1.059 3.567L.473 13.453a.437.437 0 00.574.574l2.387-1.023A6.51 6.51 0 007 14.063 6.57 6.57 0 0013.563 7.5 6.57 6.57 0 007 .937zm3.368 8.911s-.545.7-.94.864c-1.002.414-2.417 0-4.029-1.612-1.611-1.612-2.027-3.027-1.611-4.03.163-.394.863-.94.863-.94a.51.51 0 01.655.041l.791.792a.44.44 0 010 .619l-.497.496s-.2.604 1.008 1.813S8.42 8.9 8.42 8.9l.496-.497a.44.44 0 01.62 0l.79.791a.51.51 0 01.041.655z" fill="#1B1B1B"/></g><defs><clipPath id="clip0_0_375"><path fill="#fff" transform="translate(0 .5)" d="M0 0h14v14H0z"/></clipPath></defs></svg>